<?xml version="1.0" encoding="utf-8"?>
<!-- Generator: Adobe Illustrator 26.0.1, SVG Export Plug-In . SVG Version: 6.00 Build 0)  -->
<svg version="1.2" baseProfile="tiny" id="Layer_1" xmlns="http://www.w3.org/2000/svg" xmlns:xlink="http://www.w3.org/1999/xlink"
	 x="0px" y="0px" viewBox="0 0 46.44 50" overflow="visible" xml:space="preserve">
<path d="M8.04,16.79c0.52-0.05,1.05-0.09,1.61-0.12c0.56-0.03,1.12-0.04,1.67-0.04c0.56,0,0.77,0.11,1.28,0.16v28.48
	c-0.52,0.05-0.68,0.16-1.28,0.16c-0.56,0-1.13-0.01-1.71-0.04c-0.58-0.03-1.11-0.07-1.58-0.12V16.79z"/>
<path d="M26.48,21.26h-9.59c-0.08-0.26-0.08-4.26,0-4.53h23.15c0.07,0.26,0.04,4.37,0,4.53h-9.59v23.96
	c-0.86,0.08-0.92,0.12-1.93,0.12c-1.04,0-1.14-0.04-2.04-0.12V21.26z"/>
<path d="M33.08,12.12c0.85-0.48,1.64-1.08,2.31-1.77c1.48-1.55,3.49-4.75,2.29-7.4c-1.31-2.88-5.69-3.47-8.63-2.55
	c-2.79,0.87-5.02,3.31-6.18,5.84c-0.45-0.73-0.96-1.37-1.42-1.85C17.78,0.58,10.57-0.11,8.63,2.7c-1.47,2.14-0.07,6.59,2.86,9.42
	H8.28c-4.97,0-9,4.03-9,9V50h38.16c4.97,0,9-4.03,9-9V12.12H33.08z M43.44,41c0,3.31-2.69,6-6,6H2.28V21.12
	c0-1.6,0.62-3.11,1.76-4.24c1.13-1.14,2.64-1.76,4.24-1.76h35.16V41z"/>
</svg>
