<?xml version="1.0" encoding="utf-8"?>
<!-- Generator: Adobe Illustrator 26.0.1, SVG Export Plug-In . SVG Version: 6.00 Build 0)  -->
<svg version="1.2" baseProfile="tiny" id="Layer_1" xmlns="http://www.w3.org/2000/svg" xmlns:xlink="http://www.w3.org/1999/xlink"
	 x="0px" y="0px" viewBox="0 0 25 25" overflow="visible" xml:space="preserve">
<g>
	<rect x="-70.05" y="-88.98" transform="matrix(0.7071 -0.7071 0.7071 0.7071 -43.8964 -24.4979)" width="37.06" height="259.44"/>
</g>
<g>
	<rect x="-24.84" y="22.21" transform="matrix(0.7071 -0.7071 0.7071 0.7071 1.9148 86.099)" width="259.44" height="37.06"/>
</g>
<g>
	<path fill="#FFFFFF" d="M23.92,21.8c0.58,0.58,0.58,1.53,0,2.12c-0.29,0.29-0.68,0.44-1.06,0.44c-0.39,0-0.77-0.15-1.06-0.44
		l-9.3-9.3l-9.3,9.3c-0.29,0.29-0.67,0.44-1.06,0.44c-0.38,0-0.76-0.15-1.06-0.44c-0.58-0.59-0.58-1.54,0-2.12l9.3-9.3l-9.3-9.3
		c-0.58-0.58-0.58-1.53,0-2.12c0.59-0.58,1.54-0.58,2.12,0l9.3,9.3l9.3-9.3c0.58-0.58,1.53-0.58,2.12,0c0.58,0.59,0.58,1.54,0,2.12
		l-9.3,9.3L23.92,21.8z"/>
</g>
</svg>
