<?xml version="1.0" encoding="utf-8"?>
<!-- Generator: Adobe Illustrator 26.0.1, SVG Export Plug-In . SVG Version: 6.00 Build 0)  -->
<svg version="1.2" baseProfile="tiny" id="Layer_1" xmlns="http://www.w3.org/2000/svg" xmlns:xlink="http://www.w3.org/1999/xlink"
	 x="0px" y="0px" viewBox="0 0 50 51.57" overflow="visible" xml:space="preserve">
<path d="M15.77,21.46l-0.13,24.88l-3.24-0.01l0.13-24.88L15.77,21.46z M40.83,21.59l-0.02,3.03l-8.59-0.04L32.1,46.43l-3.24-0.02
	l0.11-21.86l-8.59-0.04l0.02-3.03L40.83,21.59z"/>
<path d="M44.62,22.4c0-4.45-3.62-8.07-8.07-8.07H5.36L5.38,43.5c0,4.45,3.62,8.07,8.07,8.07l31.19-0.02L44.62,22.4z M13.45,49.82
	c-3.48,0-6.31-2.82-6.31-6.31l-0.01-27.4l28.59-0.02h0.83c1.74,0,3.32,0.71,4.46,1.85c1.14,1.15,1.85,2.72,1.85,4.46l0.01,27.4
	L13.45,49.82z"/>
<path d="M9.21,14.33h14.21c0,0-1.93-9.84-9.06-10.58S9.21,14.33,9.21,14.33z"/>
<path d="M37.58,14.4c0,0,0.91-9.62-4.18-10.67S20.89,11.68,22.51,14.4H37.58z"/>
</svg>
