<?xml version="1.0" encoding="utf-8"?>
<!-- Generator: Adobe Illustrator 26.0.1, SVG Export Plug-In . SVG Version: 6.00 Build 0)  -->
<svg version="1.2" baseProfile="tiny" id="Layer_1" xmlns="http://www.w3.org/2000/svg" xmlns:xlink="http://www.w3.org/1999/xlink"
	 x="0px" y="0px" viewBox="0 0 25 25" overflow="visible" xml:space="preserve">
<path d="M25,13.62c-0.07,0.45-0.11,0.9-0.2,1.34c-0.55,2.95-2.01,5.36-4.31,7.26c-1.16,0.96-2.47,1.67-3.9,2.15
	c-0.13,0.04-0.27,0.07-0.4,0.07c-0.39,0.01-0.6-0.2-0.62-0.59c-0.01-0.11,0-0.23,0-0.34c0-0.92,0.01-1.84,0.02-2.76
	c0.01-0.93-0.11-1.82-0.8-2.51c0.6-0.13,1.19-0.22,1.77-0.38c2.19-0.59,3.45-2.03,3.78-4.27c0.16-1.07,0.2-2.14-0.2-3.17
	c-0.2-0.52-0.48-0.99-0.85-1.41c-0.09-0.1-0.11-0.19-0.07-0.32c0.31-0.99,0.21-1.97-0.13-2.94c-0.05-0.14-0.15-0.15-0.26-0.15
	c-0.63-0.02-1.2,0.19-1.75,0.46c-0.44,0.21-0.85,0.48-1.28,0.7c-0.11,0.06-0.26,0.09-0.38,0.07c-1.96-0.48-3.91-0.47-5.86,0
	c-0.11,0.03-0.26,0-0.35-0.06C8.47,6.32,7.73,5.91,6.89,5.69c-0.89-0.22-1-0.16-1.2,0.71C5.51,7.19,5.51,7.97,5.76,8.74
	c0.02,0.07,0,0.19-0.05,0.25c-1.01,1.15-1.28,2.5-1.15,3.98c0.08,0.92,0.27,1.81,0.73,2.63c0.65,1.15,1.66,1.85,2.91,2.22
	c0.64,0.19,1.3,0.3,1.97,0.46c-0.4,0.41-0.62,0.93-0.73,1.5c-0.01,0.06-0.09,0.13-0.16,0.16c-1.38,0.54-2.67,0.29-3.51-1.07
	c-0.41-0.68-1-1.15-1.82-1.25c-0.1-0.01-0.2-0.02-0.29,0.01c-0.12,0.04-0.23,0.11-0.35,0.17c0.07,0.11,0.11,0.25,0.21,0.33
	c0.19,0.17,0.41,0.29,0.6,0.45c0.48,0.41,0.79,0.94,1.03,1.52c0.45,1.1,1.3,1.67,2.44,1.77c0.58,0.05,1.16-0.01,1.77-0.02
	c0,0.01,0.01,0.08,0.01,0.15c0.01,0.57,0.02,1.14,0.02,1.71c0,0.63-0.38,0.91-0.97,0.71c-1.97-0.66-3.68-1.75-5.1-3.26
	c-1.69-1.79-2.77-3.9-3.17-6.33c-0.5-3.05,0.05-5.91,1.73-8.51c1.98-3.08,4.81-4.97,8.41-5.59c3.85-0.66,7.33,0.27,10.33,2.78
	c2.19,1.83,3.56,4.17,4.12,6.97c0.08,0.4,0.12,0.82,0.17,1.23c0.01,0.09,0.03,0.17,0.05,0.26C25,12.52,25,13.07,25,13.62z"/>
</svg>
